<svg version="1" xmlns="http://www.w3.org/2000/svg" width="170.667" height="170.667" viewBox="0 0 128.000000 128.000000"><path d="M51.5 11.4c-18.6 4.4-32 16.1-38.2 33.7-3.6 9.9-3.7 23.3-.4 32.8 5.6 16 16.7 27.3 32.2 32.8 9.9 3.6 23.3 3.7 32.8.4 16-5.6 27.3-16.7 32.8-32.2C117.3 60.5 112 38.5 98 25 85.7 13.2 67.1 7.8 51.5 11.4zm25.8 2.9c8.1 2.6 15.2 7 21 13.2 6.9 7.2 8 5.8-16.3 20.4C69.9 55.2 60 61.5 60 62c0 2.7 4 .9 23.7-10.9 17.1-10.3 22-12.8 22.9-11.8 2.5 2.5 5.4 14.8 5.4 22.8 0 27.8-22.2 49.9-50.1 49.9C34.1 112 12 89.8 12 61.9 12 28 44.9 4 77.3 14.3z"/></svg>